<svg width="283" height="325" viewBox="0 0 283 325" fill="none" xmlns="http://www.w3.org/2000/svg">
<path d="M180.494 226.604L180.494 226.604C180.636 226.335 180.962 225.93 181.329 225.498C181.73 225.026 182.275 224.411 182.945 223.675C184.286 222.201 186.145 220.218 188.384 217.87C192.865 213.173 198.883 206.999 205.358 200.482L227.196 178.5H169.588C146.945 178.5 131.779 178.453 122.029 178.334C117.155 178.275 113.626 178.197 111.191 178.098C109.974 178.049 109.02 177.993 108.304 177.931C107.616 177.872 107.068 177.8 106.716 177.696C103.752 176.818 100.985 174.522 98.9716 171.755C96.9561 168.986 95.596 165.608 95.596 162.441C95.596 159.273 96.9561 155.896 98.9716 153.126C100.985 150.36 103.752 148.063 106.716 147.186C107.068 147.081 107.616 147.01 108.304 146.95C109.02 146.888 109.974 146.833 111.191 146.783C113.626 146.684 117.155 146.607 122.029 146.547C131.779 146.428 146.945 146.382 169.588 146.382H227.194L205.31 124.381L206.019 123.675L205.31 124.381C192.739 111.742 186.163 105.079 182.74 100.838C181.021 98.7077 180.037 97.1185 179.499 95.6321C178.954 94.1284 178.893 92.8039 178.887 91.3009C178.856 84.4206 181.971 79.1858 187.858 76.4386C189.81 75.5274 192.454 74.8622 194.273 74.8601C194.517 74.8599 194.756 74.8568 194.991 74.8538C196.287 74.8373 197.475 74.8221 198.837 75.29C200.435 75.839 202.228 77.021 204.99 79.3923C210.079 83.7621 218.81 92.4914 236.173 109.852C237.679 111.358 239.25 112.93 240.89 114.568C251.977 125.651 261.641 135.434 268.633 142.63C272.128 146.227 274.959 149.181 276.966 151.329C277.969 152.403 278.771 153.28 279.349 153.938C279.638 154.266 279.876 154.546 280.058 154.772C280.222 154.976 280.39 155.196 280.488 155.381C280.489 155.381 280.489 155.381 280.489 155.381L279.607 155.852C281.464 159.325 281.464 165.553 279.609 169.029L180.494 226.604ZM180.494 226.604C179.555 228.387 179.218 230.594 179.205 234.014M180.494 226.604L179.205 234.014M179.205 234.014C179.205 234.014 179.205 234.014 179.205 234.014L180.205 234.018L179.205 234.014ZM42.5491 1.76354L42.549 1.76357C21.8487 5.96355 5.69007 22.3911 1.95868 43.0448C1.86426 43.5673 1.79054 44.9411 1.72331 46.9305C1.65456 48.9651 1.59082 51.7417 1.53202 55.1513C1.41441 61.9718 1.3163 71.3412 1.23769 82.4081C1.08046 104.543 1.00115 133.478 1.00001 162.414C0.998877 191.35 1.07591 220.289 1.23141 242.433C1.30915 253.504 1.40652 262.879 1.52359 269.706C1.58212 273.119 1.64563 275.9 1.71422 277.938C1.78132 279.932 1.85495 281.309 1.94896 281.835H1.94896C3.8525 292.484 9.08101 302.061 17.1855 309.776C25.0301 317.244 34.1282 321.792 44.4727 323.4C45.4065 323.545 47.4567 323.654 50.7747 323.74C54.122 323.827 58.8255 323.89 65.1176 323.933C77.7029 324.019 96.6639 324.02 123.885 323.95L198.445 323.758L198.728 323.757L198.969 323.608L202.034 321.709L201.507 320.859L202.034 321.709C204.066 320.45 206.063 318.449 207.319 316.414L206.468 315.888L207.319 316.413C208.169 315.035 208.713 314.018 209.016 312.759C209.312 311.531 209.362 310.129 209.362 308.012C209.362 305.896 209.312 304.494 209.016 303.266C208.713 302.007 208.169 300.99 207.319 299.612L206.468 300.137L207.319 299.611C206.063 297.576 204.066 295.575 202.035 294.316L202.035 294.316L198.97 292.417L198.73 292.268L198.447 292.267L122.635 291.953L47.0676 291.641L44.0183 290.03C39.8597 287.833 36.8639 284.725 34.9628 280.662L34.057 281.085L34.9627 280.662L33.4165 277.358V162.441V47.5235L34.9627 44.22L34.9628 44.2198C36.8639 40.1564 39.8597 37.0486 44.0183 34.8517L47.0676 33.2409L122.635 32.9282L198.447 32.6145L198.73 32.6133L198.97 32.4646L202.035 30.5659L202.035 30.5657C204.066 29.3069 206.063 27.3057 207.319 25.2701L207.319 25.2699C208.169 23.892 208.713 22.8747 209.016 21.616C209.312 20.3875 209.362 18.9853 209.362 16.8691C209.362 14.7528 209.312 13.3506 209.016 12.1221C208.713 10.8635 208.169 9.84615 207.319 8.46821L207.319 8.46803C206.063 6.43244 204.066 4.43123 202.034 3.17233L202.034 3.17227L198.969 1.27357L198.728 1.12405L198.444 1.12366L122.632 1.02076C92.3718 0.979662 73.2082 0.995646 61.2029 1.10433C55.2011 1.15867 50.9802 1.23623 48.0533 1.3418C45.1547 1.44635 43.4555 1.57974 42.5491 1.76354ZM228.606 178.5L206.067 201.187C193.125 214.214 182.015 225.862 181.379 227.07L228.606 178.5Z" fill="#191919" stroke="#191919" stroke-width="2"/>
</svg>
