<svg width="700" height="204" viewBox="0 0 700 204" fill="none" xmlns="http://www.w3.org/2000/svg">
<path fill-rule="evenodd" clip-rule="evenodd" d="M134 18.5V37H122H110V50.5V64H122H134V95.451C134 115.115 134.425 128.887 135.134 132.201C138.249 146.754 147.029 156.238 160.828 159.954C168.039 161.895 183.347 161.38 190.649 158.95L197 156.837V142.918C197 135.263 196.662 129.005 196.25 129.011C195.838 129.017 193.291 129.692 190.591 130.511C179.985 133.728 170.672 131.197 167.059 124.115C165.125 120.325 165 118.373 165 92.04V64H181.5H198V50V36H181.5H165V18V0H149.5H134V18.5ZM41.347 35.095C29.473 37.079 17.045 43.983 11.808 51.506C8.126 56.796 5 66.925 5 73.568C5 85.569 12.722 97.29 24.395 103.008C28.359 104.949 36.85 107.367 48.612 109.902C67.576 113.99 71.86 115.535 74.439 119.217C76.857 122.669 76.42 128.347 73.467 131.857C70.845 134.973 67.536 136.39 60.25 137.518L56 138.176V149.864V161.553L64.25 160.857C78.116 159.686 87.876 155.921 95.67 148.736C103.893 141.157 107.111 133.186 107.111 120.398C107.111 104.529 98.141 94.001 80 88.579C76.975 87.675 67.542 85.565 59.038 83.889C42.89 80.708 40.945 80.067 37.25 76.701C35.52 75.125 35 73.553 35 69.903C35 63.732 38.677 59.757 46.012 57.997C59.557 54.748 73.269 62.096 75.623 73.865L76.25 77H90.988H105.727L104.783 71.75C103.353 63.795 98.329 54.199 92.593 48.463C81.226 37.098 60.977 31.815 41.347 35.095ZM248.202 36.022C227.648 41.407 213.157 56.19 207.039 78.016C204.446 87.266 204.105 107.355 206.394 116.015C210.403 131.18 216.513 141.383 226.204 149.095C243.686 163.008 270.241 165.224 291.493 154.542C304.478 148.016 311.24 139.734 317.044 123.25L318.892 118H304.451H290.01L287.909 122.471C285.061 128.528 279.237 133.555 272.878 135.444C254.897 140.783 240.757 130.677 237.627 110.25L236.976 106H278.616H320.256L319.764 92.25C319.217 77.005 317.385 70.232 310.877 59.392C299.04 39.675 272.306 29.707 248.202 36.022ZM390.734 35.088C382.564 37.013 370.565 44.803 366.456 50.849L364 54.464V45.232V36H349.5H335V120V204H350.5H366V173.848V143.696L371.969 149.389C381.837 158.802 393.384 162.559 407.295 160.885C427.984 158.394 444.052 143.002 450.495 119.5C453.081 110.067 453.586 91.203 451.526 81C448.121 64.132 438.03 48.003 426.567 41.105C416.353 34.959 401.715 32.501 390.734 35.088ZM520.734 35.088C512.564 37.013 500.565 44.803 496.456 50.849L494 54.464V45.232V36H480H466V120V204H481H496V173.848V143.696L501.795 149.223C511.24 158.232 519.047 161.262 532.5 161.142C556.015 160.93 574.147 145.338 581.156 119.3C583.927 109.005 584.167 88.792 581.639 78.5C577.734 62.597 567.876 47.887 556.58 41.105C546.338 34.957 531.713 32.502 520.734 35.088ZM629 35.493C606.302 40.05 593.071 54.033 592.887 73.658C592.803 82.611 594.264 87.884 598.277 93.121C605.354 102.354 615.091 106.53 642.231 111.974C659.354 115.409 662.607 116.814 664.628 121.652C666.604 126.381 665.02 131.121 660.247 134.761C656.931 137.29 655.946 137.5 647.414 137.5C638.733 137.5 637.91 137.316 633.845 134.458C629 131.054 625.041 124.906 625.016 120.75L625 118H609.886H594.773L595.479 122.711C597.645 137.151 607.449 150.33 620.233 155.985C631.431 160.938 650.096 162.719 661.528 159.925C681.149 155.129 693.539 142.175 694.755 125.184C696.253 104.245 683.614 91.764 655.5 86.419C629.687 81.511 624 78.515 624 69.823C624 63.718 628.479 59.712 637.25 57.972L644 56.633V45.317V34L639.75 34.094C637.413 34.146 632.575 34.775 629 35.493ZM663 53V72H681.5H700V53V34H681.5H663V53ZM687 53V59H681H675V53V47H681H687V53ZM270.384 59.23C278.226 61.573 287 73.88 287 82.538V85H261.554H236.108L237.664 79.75C242.856 62.236 254.986 54.629 270.384 59.23ZM402.101 64.156C403.97 64.792 407.377 66.643 409.671 68.269C421.162 76.414 425.24 99.61 418.105 116.254C410.848 133.185 390.701 138.411 377.496 126.788C366.458 117.072 363.125 95.202 370.183 78.797C372.577 73.23 380.173 65.869 385.173 64.269C389.722 62.813 397.99 62.758 402.101 64.156ZM535.78 65.578C548.377 71.855 554.081 86.799 551.051 105.586C549.442 115.56 547.807 119.223 542.372 125.034C534.674 133.264 523.183 135.387 513.218 130.421C503.815 125.736 498.404 116.046 497.317 101.949C495.539 78.902 506.637 63 524.5 63C529.059 63 531.919 63.653 535.78 65.578ZM0 143V162H18.5H37V143V124H18.5H0V143ZM25 142.5V149H18.5H12V142.5V136H18.5H25V142.5Z" fill="#191919"/>
<path fill-rule="evenodd" clip-rule="evenodd" d="M37 124H0V162H37V124ZM25 136H12V149H25V136Z" fill="#13DCE3"/>
<path fill-rule="evenodd" clip-rule="evenodd" d="M700 34H663V72H700V34ZM687 47H675V59H687V47Z" fill="#13DCE3"/>
</svg>
